# xmcd
#
# Track frame offsets:
# 151
# 14953
# 25895
# 37382
# 56790
# 67854
# 80641
# 100040
# 109839
# 121275
# 134992
#
# Disc length: 2078 seconds
#
#
# Revision: 0
# Processed by: cddbd v1.5.2PL0 Copyright (c) Steve Scherf et al.
# Submitted via: FreeRIP 2.945 
#
DISCID=a5081c0b
DTITLE=Mick Covey - Thanks To You (Mick)
DYEAR=2002
DGENRE=Country
TTITLE0=Thanx to you
TTITLE1=Girl Of My Best Friend
TTITLE2=I,d Never Find Another You
TTITLE3=Peacefull Easy Feeling
TTITLE4=The Wonder Of You
TTITLE5=In Thoughts Of You
TTITLE6=Cowerd Of The County
TTITLE7=His Latest Flame (Marie,s The Name
TTITLE8=Halfway To Paradise
TTITLE9=Can,t Help Falling In Love
TTITLE10=When You Say Nothing At All
EXTD=Good Karaoke Singer \nTel - 01328 863010 For Bookings
EXTT0=
EXTT1=
EXTT2=
EXTT3=
EXTT4=
EXTT5=
EXTT6=
EXTT7=
EXTT8=
EXTT9=
EXTT10=
PLAYORDER=
